<mxfile host="app.diagrams.net" modified="2024-02-12T02:15:44.281Z" agent="Mozilla/5.0 (Windows NT 10.0; Win64; x64) AppleWebKit/537.36 (KHTML, like Gecko) Chrome/121.0.0.0 Safari/537.36 Edg/121.0.0.0" etag="2MS5hQlA43h8MbPC9Wvo" version="23.1.2" type="device">
  <diagram name="Page-1" id="n7p46hA-KwcHDRGhU9Bj">
    <mxGraphModel dx="1123" dy="656" grid="1" gridSize="10" guides="1" tooltips="1" connect="1" arrows="1" fold="1" page="1" pageScale="1" pageWidth="1200" pageHeight="1300" background="#ffffff" math="0" shadow="0">
      <root>
        <mxCell id="0" />
        <mxCell id="1" parent="0" />
        <mxCell id="2x9wppMG4TO0C0dCaRWt-3" value="" style="edgeStyle=orthogonalEdgeStyle;rounded=0;orthogonalLoop=1;jettySize=auto;html=1;" edge="1" parent="1" source="2x9wppMG4TO0C0dCaRWt-12" target="2x9wppMG4TO0C0dCaRWt-14">
          <mxGeometry relative="1" as="geometry" />
        </mxCell>
        <mxCell id="2x9wppMG4TO0C0dCaRWt-4" value="" style="edgeStyle=orthogonalEdgeStyle;rounded=0;orthogonalLoop=1;jettySize=auto;html=1;" edge="1" parent="1" source="2x9wppMG4TO0C0dCaRWt-12" target="2x9wppMG4TO0C0dCaRWt-20">
          <mxGeometry relative="1" as="geometry" />
        </mxCell>
        <mxCell id="2x9wppMG4TO0C0dCaRWt-5" value="" style="edgeStyle=orthogonalEdgeStyle;rounded=0;orthogonalLoop=1;jettySize=auto;html=1;" edge="1" parent="1" source="2x9wppMG4TO0C0dCaRWt-12" target="2x9wppMG4TO0C0dCaRWt-29">
          <mxGeometry relative="1" as="geometry" />
        </mxCell>
        <mxCell id="2x9wppMG4TO0C0dCaRWt-6" value="" style="edgeStyle=orthogonalEdgeStyle;rounded=0;orthogonalLoop=1;jettySize=auto;html=1;" edge="1" parent="1" source="2x9wppMG4TO0C0dCaRWt-12" target="2x9wppMG4TO0C0dCaRWt-78">
          <mxGeometry relative="1" as="geometry" />
        </mxCell>
        <mxCell id="2x9wppMG4TO0C0dCaRWt-7" value="" style="edgeStyle=orthogonalEdgeStyle;rounded=0;orthogonalLoop=1;jettySize=auto;html=1;" edge="1" parent="1" source="2x9wppMG4TO0C0dCaRWt-12" target="2x9wppMG4TO0C0dCaRWt-78">
          <mxGeometry relative="1" as="geometry" />
        </mxCell>
        <mxCell id="2x9wppMG4TO0C0dCaRWt-8" value="" style="edgeStyle=orthogonalEdgeStyle;rounded=0;orthogonalLoop=1;jettySize=auto;html=1;" edge="1" parent="1" source="2x9wppMG4TO0C0dCaRWt-12" target="2x9wppMG4TO0C0dCaRWt-78">
          <mxGeometry relative="1" as="geometry" />
        </mxCell>
        <mxCell id="2x9wppMG4TO0C0dCaRWt-9" value="" style="edgeStyle=orthogonalEdgeStyle;rounded=0;orthogonalLoop=1;jettySize=auto;html=1;" edge="1" parent="1" source="2x9wppMG4TO0C0dCaRWt-12" target="2x9wppMG4TO0C0dCaRWt-78">
          <mxGeometry relative="1" as="geometry" />
        </mxCell>
        <mxCell id="2x9wppMG4TO0C0dCaRWt-10" value="" style="edgeStyle=orthogonalEdgeStyle;rounded=0;orthogonalLoop=1;jettySize=auto;html=1;" edge="1" parent="1" source="2x9wppMG4TO0C0dCaRWt-12" target="2x9wppMG4TO0C0dCaRWt-79">
          <mxGeometry relative="1" as="geometry" />
        </mxCell>
        <mxCell id="2x9wppMG4TO0C0dCaRWt-11" value="" style="edgeStyle=orthogonalEdgeStyle;rounded=0;orthogonalLoop=1;jettySize=auto;html=1;exitX=0.673;exitY=0.044;exitDx=0;exitDy=0;exitPerimeter=0;" edge="1" parent="1" source="2x9wppMG4TO0C0dCaRWt-12" target="2x9wppMG4TO0C0dCaRWt-82">
          <mxGeometry relative="1" as="geometry" />
        </mxCell>
        <mxCell id="2x9wppMG4TO0C0dCaRWt-12" value="User" style="rounded=0;whiteSpace=wrap;html=1;" vertex="1" parent="1">
          <mxGeometry x="190" y="638" width="120" height="60" as="geometry" />
        </mxCell>
        <mxCell id="2x9wppMG4TO0C0dCaRWt-13" value="" style="edgeStyle=orthogonalEdgeStyle;rounded=0;orthogonalLoop=1;jettySize=auto;html=1;" edge="1" parent="1" source="2x9wppMG4TO0C0dCaRWt-14" target="2x9wppMG4TO0C0dCaRWt-18">
          <mxGeometry relative="1" as="geometry" />
        </mxCell>
        <mxCell id="2x9wppMG4TO0C0dCaRWt-14" value="Authorized" style="rhombus;whiteSpace=wrap;html=1;rounded=0;" vertex="1" parent="1">
          <mxGeometry x="210" y="488" width="80" height="80" as="geometry" />
        </mxCell>
        <mxCell id="2x9wppMG4TO0C0dCaRWt-15" value="" style="edgeStyle=orthogonalEdgeStyle;rounded=0;orthogonalLoop=1;jettySize=auto;html=1;" edge="1" parent="1" source="2x9wppMG4TO0C0dCaRWt-18" target="2x9wppMG4TO0C0dCaRWt-85">
          <mxGeometry relative="1" as="geometry" />
        </mxCell>
        <mxCell id="2x9wppMG4TO0C0dCaRWt-16" value="" style="edgeStyle=orthogonalEdgeStyle;rounded=0;orthogonalLoop=1;jettySize=auto;html=1;" edge="1" parent="1" source="2x9wppMG4TO0C0dCaRWt-18" target="2x9wppMG4TO0C0dCaRWt-86">
          <mxGeometry relative="1" as="geometry" />
        </mxCell>
        <mxCell id="2x9wppMG4TO0C0dCaRWt-17" value="" style="edgeStyle=orthogonalEdgeStyle;rounded=0;orthogonalLoop=1;jettySize=auto;html=1;" edge="1" parent="1" target="2x9wppMG4TO0C0dCaRWt-87">
          <mxGeometry relative="1" as="geometry">
            <mxPoint x="294.9999999999998" y="358.0000000000002" as="sourcePoint" />
          </mxGeometry>
        </mxCell>
        <mxCell id="2x9wppMG4TO0C0dCaRWt-18" value="Login" style="whiteSpace=wrap;html=1;rounded=0;" vertex="1" parent="1">
          <mxGeometry x="190" y="338" width="120" height="60" as="geometry" />
        </mxCell>
        <mxCell id="2x9wppMG4TO0C0dCaRWt-19" value="" style="edgeStyle=orthogonalEdgeStyle;rounded=0;orthogonalLoop=1;jettySize=auto;html=1;" edge="1" parent="1" source="2x9wppMG4TO0C0dCaRWt-20" target="2x9wppMG4TO0C0dCaRWt-22">
          <mxGeometry relative="1" as="geometry" />
        </mxCell>
        <mxCell id="2x9wppMG4TO0C0dCaRWt-20" value="Followed by" style="rhombus;whiteSpace=wrap;html=1;rounded=0;" vertex="1" parent="1">
          <mxGeometry x="210" y="768" width="80" height="80" as="geometry" />
        </mxCell>
        <mxCell id="2x9wppMG4TO0C0dCaRWt-21" value="" style="edgeStyle=orthogonalEdgeStyle;rounded=0;orthogonalLoop=1;jettySize=auto;html=1;" edge="1" parent="1" source="2x9wppMG4TO0C0dCaRWt-22" target="2x9wppMG4TO0C0dCaRWt-24">
          <mxGeometry relative="1" as="geometry" />
        </mxCell>
        <mxCell id="2x9wppMG4TO0C0dCaRWt-22" value="Followers" style="whiteSpace=wrap;html=1;rounded=0;" vertex="1" parent="1">
          <mxGeometry x="190" y="938" width="120" height="60" as="geometry" />
        </mxCell>
        <mxCell id="2x9wppMG4TO0C0dCaRWt-23" value="Following_id" style="ellipse;whiteSpace=wrap;html=1;" vertex="1" parent="1">
          <mxGeometry x="40" y="1048" width="120" height="70" as="geometry" />
        </mxCell>
        <mxCell id="2x9wppMG4TO0C0dCaRWt-24" value="&lt;u&gt;User_id&lt;/u&gt;" style="ellipse;whiteSpace=wrap;html=1;rounded=0;" vertex="1" parent="1">
          <mxGeometry x="185" y="1048" width="130" height="60" as="geometry" />
        </mxCell>
        <mxCell id="2x9wppMG4TO0C0dCaRWt-25" value="" style="endArrow=none;html=1;rounded=0;exitX=0;exitY=1;exitDx=0;exitDy=0;" edge="1" parent="1" source="2x9wppMG4TO0C0dCaRWt-22" target="2x9wppMG4TO0C0dCaRWt-23">
          <mxGeometry width="50" height="50" relative="1" as="geometry">
            <mxPoint x="220" y="918" as="sourcePoint" />
            <mxPoint x="270" y="868" as="targetPoint" />
          </mxGeometry>
        </mxCell>
        <mxCell id="2x9wppMG4TO0C0dCaRWt-26" value="follow_date" style="ellipse;whiteSpace=wrap;html=1;" vertex="1" parent="1">
          <mxGeometry x="340" y="1038" width="110" height="70" as="geometry" />
        </mxCell>
        <mxCell id="2x9wppMG4TO0C0dCaRWt-27" value="" style="endArrow=none;html=1;rounded=0;entryX=1;entryY=1;entryDx=0;entryDy=0;exitX=0.182;exitY=0;exitDx=0;exitDy=0;exitPerimeter=0;" edge="1" parent="1" source="2x9wppMG4TO0C0dCaRWt-26" target="2x9wppMG4TO0C0dCaRWt-22">
          <mxGeometry width="50" height="50" relative="1" as="geometry">
            <mxPoint x="220" y="1008" as="sourcePoint" />
            <mxPoint x="270" y="958" as="targetPoint" />
          </mxGeometry>
        </mxCell>
        <mxCell id="2x9wppMG4TO0C0dCaRWt-28" value="" style="edgeStyle=orthogonalEdgeStyle;rounded=0;orthogonalLoop=1;jettySize=auto;html=1;" edge="1" parent="1" source="2x9wppMG4TO0C0dCaRWt-29" target="2x9wppMG4TO0C0dCaRWt-33">
          <mxGeometry relative="1" as="geometry" />
        </mxCell>
        <mxCell id="2x9wppMG4TO0C0dCaRWt-29" value="Uploaded" style="rhombus;whiteSpace=wrap;html=1;rounded=0;" vertex="1" parent="1">
          <mxGeometry x="430" y="528" width="80" height="80" as="geometry" />
        </mxCell>
        <mxCell id="2x9wppMG4TO0C0dCaRWt-30" value="" style="edgeStyle=orthogonalEdgeStyle;rounded=0;orthogonalLoop=1;jettySize=auto;html=1;" edge="1" parent="1" source="2x9wppMG4TO0C0dCaRWt-33" target="2x9wppMG4TO0C0dCaRWt-36">
          <mxGeometry relative="1" as="geometry" />
        </mxCell>
        <mxCell id="2x9wppMG4TO0C0dCaRWt-31" value="" style="edgeStyle=orthogonalEdgeStyle;rounded=0;orthogonalLoop=1;jettySize=auto;html=1;" edge="1" parent="1" source="2x9wppMG4TO0C0dCaRWt-33" target="2x9wppMG4TO0C0dCaRWt-46">
          <mxGeometry relative="1" as="geometry" />
        </mxCell>
        <mxCell id="2x9wppMG4TO0C0dCaRWt-32" value="" style="edgeStyle=orthogonalEdgeStyle;rounded=0;orthogonalLoop=1;jettySize=auto;html=1;" edge="1" parent="1" source="2x9wppMG4TO0C0dCaRWt-33" target="2x9wppMG4TO0C0dCaRWt-51">
          <mxGeometry relative="1" as="geometry" />
        </mxCell>
        <mxCell id="2x9wppMG4TO0C0dCaRWt-33" value="Post" style="whiteSpace=wrap;html=1;rounded=0;" vertex="1" parent="1">
          <mxGeometry x="570" y="538" width="120" height="60" as="geometry" />
        </mxCell>
        <mxCell id="2x9wppMG4TO0C0dCaRWt-34" value="" style="edgeStyle=orthogonalEdgeStyle;rounded=0;orthogonalLoop=1;jettySize=auto;html=1;" edge="1" parent="1" source="2x9wppMG4TO0C0dCaRWt-36" target="2x9wppMG4TO0C0dCaRWt-40">
          <mxGeometry relative="1" as="geometry" />
        </mxCell>
        <mxCell id="2x9wppMG4TO0C0dCaRWt-35" value="" style="edgeStyle=orthogonalEdgeStyle;rounded=0;orthogonalLoop=1;jettySize=auto;html=1;" edge="1" parent="1" source="2x9wppMG4TO0C0dCaRWt-36" target="2x9wppMG4TO0C0dCaRWt-44">
          <mxGeometry relative="1" as="geometry" />
        </mxCell>
        <mxCell id="2x9wppMG4TO0C0dCaRWt-36" value="Contains" style="rhombus;whiteSpace=wrap;html=1;rounded=0;" vertex="1" parent="1">
          <mxGeometry x="590" y="388" width="80" height="80" as="geometry" />
        </mxCell>
        <mxCell id="2x9wppMG4TO0C0dCaRWt-37" value="" style="edgeStyle=orthogonalEdgeStyle;rounded=0;orthogonalLoop=1;jettySize=auto;html=1;" edge="1" parent="1" source="2x9wppMG4TO0C0dCaRWt-40" target="2x9wppMG4TO0C0dCaRWt-88">
          <mxGeometry relative="1" as="geometry" />
        </mxCell>
        <mxCell id="2x9wppMG4TO0C0dCaRWt-38" value="" style="edgeStyle=orthogonalEdgeStyle;rounded=0;orthogonalLoop=1;jettySize=auto;html=1;" edge="1" parent="1" source="2x9wppMG4TO0C0dCaRWt-40" target="2x9wppMG4TO0C0dCaRWt-89">
          <mxGeometry relative="1" as="geometry" />
        </mxCell>
        <mxCell id="2x9wppMG4TO0C0dCaRWt-39" value="" style="edgeStyle=orthogonalEdgeStyle;rounded=0;orthogonalLoop=1;jettySize=auto;html=1;" edge="1" parent="1" source="2x9wppMG4TO0C0dCaRWt-40" target="2x9wppMG4TO0C0dCaRWt-90">
          <mxGeometry relative="1" as="geometry" />
        </mxCell>
        <mxCell id="2x9wppMG4TO0C0dCaRWt-40" value="Photos" style="whiteSpace=wrap;html=1;rounded=0;" vertex="1" parent="1">
          <mxGeometry x="570" y="268" width="120" height="60" as="geometry" />
        </mxCell>
        <mxCell id="2x9wppMG4TO0C0dCaRWt-41" value="" style="edgeStyle=orthogonalEdgeStyle;rounded=0;orthogonalLoop=1;jettySize=auto;html=1;" edge="1" parent="1" source="2x9wppMG4TO0C0dCaRWt-44" target="2x9wppMG4TO0C0dCaRWt-91">
          <mxGeometry relative="1" as="geometry" />
        </mxCell>
        <mxCell id="2x9wppMG4TO0C0dCaRWt-42" value="" style="edgeStyle=orthogonalEdgeStyle;rounded=0;orthogonalLoop=1;jettySize=auto;html=1;" edge="1" parent="1" source="2x9wppMG4TO0C0dCaRWt-44" target="2x9wppMG4TO0C0dCaRWt-92">
          <mxGeometry relative="1" as="geometry" />
        </mxCell>
        <mxCell id="2x9wppMG4TO0C0dCaRWt-43" value="" style="edgeStyle=orthogonalEdgeStyle;rounded=0;orthogonalLoop=1;jettySize=auto;html=1;" edge="1" parent="1" source="2x9wppMG4TO0C0dCaRWt-44" target="2x9wppMG4TO0C0dCaRWt-93">
          <mxGeometry relative="1" as="geometry" />
        </mxCell>
        <mxCell id="2x9wppMG4TO0C0dCaRWt-44" value="Videos" style="whiteSpace=wrap;html=1;rounded=0;" vertex="1" parent="1">
          <mxGeometry x="730" y="398" width="120" height="60" as="geometry" />
        </mxCell>
        <mxCell id="2x9wppMG4TO0C0dCaRWt-45" value="" style="edgeStyle=orthogonalEdgeStyle;rounded=0;orthogonalLoop=1;jettySize=auto;html=1;" edge="1" parent="1" source="2x9wppMG4TO0C0dCaRWt-46" target="2x9wppMG4TO0C0dCaRWt-49">
          <mxGeometry relative="1" as="geometry" />
        </mxCell>
        <mxCell id="2x9wppMG4TO0C0dCaRWt-46" value="Has" style="rhombus;whiteSpace=wrap;html=1;rounded=0;" vertex="1" parent="1">
          <mxGeometry x="790" y="528" width="80" height="80" as="geometry" />
        </mxCell>
        <mxCell id="2x9wppMG4TO0C0dCaRWt-47" value="" style="edgeStyle=orthogonalEdgeStyle;rounded=0;orthogonalLoop=1;jettySize=auto;html=1;" edge="1" parent="1" source="2x9wppMG4TO0C0dCaRWt-49" target="2x9wppMG4TO0C0dCaRWt-105">
          <mxGeometry relative="1" as="geometry" />
        </mxCell>
        <mxCell id="2x9wppMG4TO0C0dCaRWt-48" value="" style="edgeStyle=orthogonalEdgeStyle;rounded=0;orthogonalLoop=1;jettySize=auto;html=1;" edge="1" parent="1" source="2x9wppMG4TO0C0dCaRWt-49" target="2x9wppMG4TO0C0dCaRWt-106">
          <mxGeometry relative="1" as="geometry" />
        </mxCell>
        <mxCell id="2x9wppMG4TO0C0dCaRWt-49" value="Post Likes" style="whiteSpace=wrap;html=1;rounded=0;" vertex="1" parent="1">
          <mxGeometry x="930" y="538" width="120" height="60" as="geometry" />
        </mxCell>
        <mxCell id="2x9wppMG4TO0C0dCaRWt-50" value="" style="edgeStyle=orthogonalEdgeStyle;rounded=0;orthogonalLoop=1;jettySize=auto;html=1;" edge="1" parent="1" source="2x9wppMG4TO0C0dCaRWt-51" target="2x9wppMG4TO0C0dCaRWt-60">
          <mxGeometry relative="1" as="geometry" />
        </mxCell>
        <mxCell id="2x9wppMG4TO0C0dCaRWt-51" value="Saved as" style="rhombus;whiteSpace=wrap;html=1;rounded=0;" vertex="1" parent="1">
          <mxGeometry x="500" y="688" width="80" height="80" as="geometry" />
        </mxCell>
        <mxCell id="2x9wppMG4TO0C0dCaRWt-52" value="" style="edgeStyle=orthogonalEdgeStyle;rounded=0;orthogonalLoop=1;jettySize=auto;html=1;exitX=0.5;exitY=1;exitDx=0;exitDy=0;" edge="1" parent="1" source="2x9wppMG4TO0C0dCaRWt-46" target="2x9wppMG4TO0C0dCaRWt-56">
          <mxGeometry relative="1" as="geometry">
            <mxPoint x="730" y="778.0000000000002" as="sourcePoint" />
          </mxGeometry>
        </mxCell>
        <mxCell id="2x9wppMG4TO0C0dCaRWt-53" value="" style="edgeStyle=orthogonalEdgeStyle;rounded=0;orthogonalLoop=1;jettySize=auto;html=1;" edge="1" parent="1" source="2x9wppMG4TO0C0dCaRWt-56" target="2x9wppMG4TO0C0dCaRWt-62">
          <mxGeometry relative="1" as="geometry" />
        </mxCell>
        <mxCell id="2x9wppMG4TO0C0dCaRWt-54" value="" style="edgeStyle=orthogonalEdgeStyle;rounded=0;orthogonalLoop=1;jettySize=auto;html=1;" edge="1" parent="1" source="2x9wppMG4TO0C0dCaRWt-56" target="2x9wppMG4TO0C0dCaRWt-115">
          <mxGeometry relative="1" as="geometry" />
        </mxCell>
        <mxCell id="2x9wppMG4TO0C0dCaRWt-55" value="" style="edgeStyle=orthogonalEdgeStyle;rounded=0;orthogonalLoop=1;jettySize=auto;html=1;" edge="1" parent="1" source="2x9wppMG4TO0C0dCaRWt-56" target="2x9wppMG4TO0C0dCaRWt-116">
          <mxGeometry relative="1" as="geometry" />
        </mxCell>
        <mxCell id="2x9wppMG4TO0C0dCaRWt-56" value="Post Tags" style="whiteSpace=wrap;html=1;rounded=0;" vertex="1" parent="1">
          <mxGeometry x="750" y="758" width="120" height="60" as="geometry" />
        </mxCell>
        <mxCell id="2x9wppMG4TO0C0dCaRWt-57" value="" style="edgeStyle=orthogonalEdgeStyle;rounded=0;orthogonalLoop=1;jettySize=auto;html=1;" edge="1" parent="1" source="2x9wppMG4TO0C0dCaRWt-60" target="2x9wppMG4TO0C0dCaRWt-109">
          <mxGeometry relative="1" as="geometry" />
        </mxCell>
        <mxCell id="2x9wppMG4TO0C0dCaRWt-58" value="" style="edgeStyle=orthogonalEdgeStyle;rounded=0;orthogonalLoop=1;jettySize=auto;html=1;" edge="1" parent="1" source="2x9wppMG4TO0C0dCaRWt-60" target="2x9wppMG4TO0C0dCaRWt-110">
          <mxGeometry relative="1" as="geometry" />
        </mxCell>
        <mxCell id="2x9wppMG4TO0C0dCaRWt-59" value="" style="edgeStyle=orthogonalEdgeStyle;rounded=0;orthogonalLoop=1;jettySize=auto;html=1;" edge="1" parent="1" source="2x9wppMG4TO0C0dCaRWt-60" target="2x9wppMG4TO0C0dCaRWt-111">
          <mxGeometry relative="1" as="geometry" />
        </mxCell>
        <mxCell id="2x9wppMG4TO0C0dCaRWt-60" value="Bookmarks&lt;span style=&quot;white-space: pre;&quot;&gt;&#x9;&lt;/span&gt;" style="whiteSpace=wrap;html=1;rounded=0;" vertex="1" parent="1">
          <mxGeometry x="480" y="858" width="120" height="60" as="geometry" />
        </mxCell>
        <mxCell id="2x9wppMG4TO0C0dCaRWt-61" value="" style="edgeStyle=orthogonalEdgeStyle;rounded=0;orthogonalLoop=1;jettySize=auto;html=1;" edge="1" parent="1" source="2x9wppMG4TO0C0dCaRWt-62" target="2x9wppMG4TO0C0dCaRWt-66">
          <mxGeometry relative="1" as="geometry" />
        </mxCell>
        <mxCell id="2x9wppMG4TO0C0dCaRWt-62" value="Comprised of" style="rhombus;whiteSpace=wrap;html=1;rounded=0;" vertex="1" parent="1">
          <mxGeometry x="770" y="898" width="80" height="80" as="geometry" />
        </mxCell>
        <mxCell id="2x9wppMG4TO0C0dCaRWt-63" value="" style="edgeStyle=orthogonalEdgeStyle;rounded=0;orthogonalLoop=1;jettySize=auto;html=1;" edge="1" parent="1" source="2x9wppMG4TO0C0dCaRWt-66" target="2x9wppMG4TO0C0dCaRWt-112">
          <mxGeometry relative="1" as="geometry" />
        </mxCell>
        <mxCell id="2x9wppMG4TO0C0dCaRWt-64" value="" style="edgeStyle=orthogonalEdgeStyle;rounded=0;orthogonalLoop=1;jettySize=auto;html=1;" edge="1" parent="1" source="2x9wppMG4TO0C0dCaRWt-66" target="2x9wppMG4TO0C0dCaRWt-113">
          <mxGeometry relative="1" as="geometry" />
        </mxCell>
        <mxCell id="2x9wppMG4TO0C0dCaRWt-65" value="" style="edgeStyle=orthogonalEdgeStyle;rounded=0;orthogonalLoop=1;jettySize=auto;html=1;" edge="1" parent="1" source="2x9wppMG4TO0C0dCaRWt-66" target="2x9wppMG4TO0C0dCaRWt-114">
          <mxGeometry relative="1" as="geometry" />
        </mxCell>
        <mxCell id="2x9wppMG4TO0C0dCaRWt-66" value="Hastags" style="whiteSpace=wrap;html=1;rounded=0;" vertex="1" parent="1">
          <mxGeometry x="750" y="1068" width="120" height="60" as="geometry" />
        </mxCell>
        <mxCell id="2x9wppMG4TO0C0dCaRWt-67" value="" style="endArrow=none;html=1;rounded=0;exitX=0;exitY=0;exitDx=0;exitDy=0;entryX=1;entryY=1;entryDx=0;entryDy=0;" edge="1" parent="1" source="2x9wppMG4TO0C0dCaRWt-33" target="2x9wppMG4TO0C0dCaRWt-69">
          <mxGeometry width="50" height="50" relative="1" as="geometry">
            <mxPoint x="560" y="508" as="sourcePoint" />
            <mxPoint x="480" y="458" as="targetPoint" />
          </mxGeometry>
        </mxCell>
        <mxCell id="2x9wppMG4TO0C0dCaRWt-68" value="" style="edgeStyle=orthogonalEdgeStyle;rounded=0;orthogonalLoop=1;jettySize=auto;html=1;" edge="1" parent="1" source="2x9wppMG4TO0C0dCaRWt-69" target="2x9wppMG4TO0C0dCaRWt-74">
          <mxGeometry relative="1" as="geometry" />
        </mxCell>
        <mxCell id="2x9wppMG4TO0C0dCaRWt-69" value="Comprised of" style="rhombus;whiteSpace=wrap;html=1;" vertex="1" parent="1">
          <mxGeometry x="380" y="378" width="80" height="80" as="geometry" />
        </mxCell>
        <mxCell id="2x9wppMG4TO0C0dCaRWt-70" value="" style="edgeStyle=orthogonalEdgeStyle;rounded=0;orthogonalLoop=1;jettySize=auto;html=1;" edge="1" parent="1" source="2x9wppMG4TO0C0dCaRWt-74" target="2x9wppMG4TO0C0dCaRWt-76">
          <mxGeometry relative="1" as="geometry" />
        </mxCell>
        <mxCell id="2x9wppMG4TO0C0dCaRWt-71" value="" style="edgeStyle=orthogonalEdgeStyle;rounded=0;orthogonalLoop=1;jettySize=auto;html=1;" edge="1" parent="1" source="2x9wppMG4TO0C0dCaRWt-74" target="2x9wppMG4TO0C0dCaRWt-94">
          <mxGeometry relative="1" as="geometry" />
        </mxCell>
        <mxCell id="2x9wppMG4TO0C0dCaRWt-72" style="edgeStyle=orthogonalEdgeStyle;rounded=0;orthogonalLoop=1;jettySize=auto;html=1;exitX=0.75;exitY=1;exitDx=0;exitDy=0;" edge="1" parent="1" source="2x9wppMG4TO0C0dCaRWt-74" target="2x9wppMG4TO0C0dCaRWt-97">
          <mxGeometry relative="1" as="geometry">
            <mxPoint x="530" y="368" as="targetPoint" />
          </mxGeometry>
        </mxCell>
        <mxCell id="2x9wppMG4TO0C0dCaRWt-73" style="edgeStyle=orthogonalEdgeStyle;rounded=0;orthogonalLoop=1;jettySize=auto;html=1;exitX=0.75;exitY=0;exitDx=0;exitDy=0;entryX=0.5;entryY=1;entryDx=0;entryDy=0;" edge="1" parent="1" source="2x9wppMG4TO0C0dCaRWt-74" target="2x9wppMG4TO0C0dCaRWt-98">
          <mxGeometry relative="1" as="geometry" />
        </mxCell>
        <mxCell id="2x9wppMG4TO0C0dCaRWt-74" value="Comments" style="whiteSpace=wrap;html=1;" vertex="1" parent="1">
          <mxGeometry x="430" y="258" width="120" height="60" as="geometry" />
        </mxCell>
        <mxCell id="2x9wppMG4TO0C0dCaRWt-75" value="" style="edgeStyle=orthogonalEdgeStyle;rounded=0;orthogonalLoop=1;jettySize=auto;html=1;" edge="1" parent="1" source="2x9wppMG4TO0C0dCaRWt-76" target="2x9wppMG4TO0C0dCaRWt-77">
          <mxGeometry relative="1" as="geometry" />
        </mxCell>
        <mxCell id="2x9wppMG4TO0C0dCaRWt-76" value="Has" style="rhombus;whiteSpace=wrap;html=1;" vertex="1" parent="1">
          <mxGeometry x="315" y="208" width="80" height="80" as="geometry" />
        </mxCell>
        <mxCell id="2x9wppMG4TO0C0dCaRWt-77" value="Comment likes" style="whiteSpace=wrap;html=1;" vertex="1" parent="1">
          <mxGeometry x="170" y="218" width="120" height="60" as="geometry" />
        </mxCell>
        <mxCell id="2x9wppMG4TO0C0dCaRWt-78" value="UserName" style="ellipse;whiteSpace=wrap;html=1;rounded=0;" vertex="1" parent="1">
          <mxGeometry x="10" y="588" width="80" height="50" as="geometry" />
        </mxCell>
        <mxCell id="2x9wppMG4TO0C0dCaRWt-79" value="&lt;u&gt;UserId&lt;/u&gt;" style="ellipse;whiteSpace=wrap;html=1;rounded=0;" vertex="1" parent="1">
          <mxGeometry x="10" y="658" width="80" height="50" as="geometry" />
        </mxCell>
        <mxCell id="2x9wppMG4TO0C0dCaRWt-80" value="Bio" style="ellipse;shape=doubleEllipse;whiteSpace=wrap;html=1;" vertex="1" parent="1">
          <mxGeometry x="40" y="718" width="100" height="60" as="geometry" />
        </mxCell>
        <mxCell id="2x9wppMG4TO0C0dCaRWt-81" style="edgeStyle=orthogonalEdgeStyle;rounded=0;orthogonalLoop=1;jettySize=auto;html=1;entryX=0.137;entryY=0.999;entryDx=0;entryDy=0;entryPerimeter=0;" edge="1" parent="1" source="2x9wppMG4TO0C0dCaRWt-80" target="2x9wppMG4TO0C0dCaRWt-12">
          <mxGeometry relative="1" as="geometry" />
        </mxCell>
        <mxCell id="2x9wppMG4TO0C0dCaRWt-82" value="DOB" style="ellipse;whiteSpace=wrap;html=1;rounded=0;" vertex="1" parent="1">
          <mxGeometry x="310" y="558" width="80" height="50" as="geometry" />
        </mxCell>
        <mxCell id="2x9wppMG4TO0C0dCaRWt-83" style="edgeStyle=orthogonalEdgeStyle;rounded=0;orthogonalLoop=1;jettySize=auto;html=1;entryX=0.75;entryY=1;entryDx=0;entryDy=0;" edge="1" parent="1" source="2x9wppMG4TO0C0dCaRWt-84" target="2x9wppMG4TO0C0dCaRWt-12">
          <mxGeometry relative="1" as="geometry" />
        </mxCell>
        <mxCell id="2x9wppMG4TO0C0dCaRWt-84" value="Email" style="ellipse;shape=doubleEllipse;whiteSpace=wrap;html=1;" vertex="1" parent="1">
          <mxGeometry x="330" y="698" width="100" height="60" as="geometry" />
        </mxCell>
        <mxCell id="2x9wppMG4TO0C0dCaRWt-85" value="Ip_address" style="ellipse;whiteSpace=wrap;html=1;rounded=0;" vertex="1" parent="1">
          <mxGeometry x="50" y="308" width="80" height="60" as="geometry" />
        </mxCell>
        <mxCell id="2x9wppMG4TO0C0dCaRWt-86" value="Login_time" style="ellipse;whiteSpace=wrap;html=1;rounded=0;" vertex="1" parent="1">
          <mxGeometry x="50" y="388" width="80" height="60" as="geometry" />
        </mxCell>
        <mxCell id="2x9wppMG4TO0C0dCaRWt-87" value="&lt;u&gt;LoginId&lt;/u&gt;" style="ellipse;whiteSpace=wrap;html=1;rounded=0;" vertex="1" parent="1">
          <mxGeometry x="325" y="328" width="80" height="40" as="geometry" />
        </mxCell>
        <mxCell id="2x9wppMG4TO0C0dCaRWt-88" value="Size" style="ellipse;whiteSpace=wrap;html=1;rounded=0;" vertex="1" parent="1">
          <mxGeometry x="560" y="158" width="80" height="50" as="geometry" />
        </mxCell>
        <mxCell id="2x9wppMG4TO0C0dCaRWt-89" value="&lt;u&gt;Post_id&lt;/u&gt;" style="ellipse;whiteSpace=wrap;html=1;rounded=0;" vertex="1" parent="1">
          <mxGeometry x="680" y="168" width="80" height="40" as="geometry" />
        </mxCell>
        <mxCell id="2x9wppMG4TO0C0dCaRWt-90" value="Post URL" style="ellipse;whiteSpace=wrap;html=1;rounded=0;" vertex="1" parent="1">
          <mxGeometry x="740" y="248" width="80" height="50" as="geometry" />
        </mxCell>
        <mxCell id="2x9wppMG4TO0C0dCaRWt-91" value="Size" style="ellipse;whiteSpace=wrap;html=1;rounded=0;" vertex="1" parent="1">
          <mxGeometry x="750" y="308" width="80" height="50" as="geometry" />
        </mxCell>
        <mxCell id="2x9wppMG4TO0C0dCaRWt-92" value="&lt;u&gt;VideoId&lt;/u&gt;" style="ellipse;whiteSpace=wrap;html=1;rounded=0;" vertex="1" parent="1">
          <mxGeometry x="920" y="348" width="80" height="50" as="geometry" />
        </mxCell>
        <mxCell id="2x9wppMG4TO0C0dCaRWt-93" value="VideoUrl" style="ellipse;whiteSpace=wrap;html=1;rounded=0;" vertex="1" parent="1">
          <mxGeometry x="920" y="438" width="80" height="50" as="geometry" />
        </mxCell>
        <mxCell id="2x9wppMG4TO0C0dCaRWt-94" value="Comment_id" style="ellipse;whiteSpace=wrap;html=1;" vertex="1" parent="1">
          <mxGeometry x="450" y="108" width="80" height="40" as="geometry" />
        </mxCell>
        <mxCell id="2x9wppMG4TO0C0dCaRWt-95" style="edgeStyle=orthogonalEdgeStyle;rounded=0;orthogonalLoop=1;jettySize=auto;html=1;" edge="1" parent="1" source="2x9wppMG4TO0C0dCaRWt-96" target="2x9wppMG4TO0C0dCaRWt-74">
          <mxGeometry relative="1" as="geometry" />
        </mxCell>
        <mxCell id="2x9wppMG4TO0C0dCaRWt-96" value="Comment Text" style="ellipse;whiteSpace=wrap;html=1;" vertex="1" parent="1">
          <mxGeometry x="400" y="163" width="80" height="50" as="geometry" />
        </mxCell>
        <mxCell id="2x9wppMG4TO0C0dCaRWt-97" value="Post_id" style="ellipse;whiteSpace=wrap;html=1;" vertex="1" parent="1">
          <mxGeometry x="490" y="358" width="90" height="40" as="geometry" />
        </mxCell>
        <mxCell id="2x9wppMG4TO0C0dCaRWt-98" value="&lt;u&gt;user id&lt;/u&gt;" style="ellipse;whiteSpace=wrap;html=1;" vertex="1" parent="1">
          <mxGeometry x="500" y="197.47" width="80" height="40" as="geometry" />
        </mxCell>
        <mxCell id="2x9wppMG4TO0C0dCaRWt-99" style="edgeStyle=orthogonalEdgeStyle;rounded=0;orthogonalLoop=1;jettySize=auto;html=1;exitX=0.5;exitY=0;exitDx=0;exitDy=0;" edge="1" parent="1" source="2x9wppMG4TO0C0dCaRWt-100" target="2x9wppMG4TO0C0dCaRWt-33">
          <mxGeometry relative="1" as="geometry" />
        </mxCell>
        <mxCell id="2x9wppMG4TO0C0dCaRWt-100" value="location" style="ellipse;whiteSpace=wrap;html=1;" vertex="1" parent="1">
          <mxGeometry x="640" y="618" width="80" height="40" as="geometry" />
        </mxCell>
        <mxCell id="2x9wppMG4TO0C0dCaRWt-101" style="edgeStyle=orthogonalEdgeStyle;rounded=0;orthogonalLoop=1;jettySize=auto;html=1;exitX=0;exitY=1;exitDx=0;exitDy=0;entryX=1;entryY=0;entryDx=0;entryDy=0;" edge="1" parent="1" source="2x9wppMG4TO0C0dCaRWt-102" target="2x9wppMG4TO0C0dCaRWt-33">
          <mxGeometry relative="1" as="geometry" />
        </mxCell>
        <mxCell id="2x9wppMG4TO0C0dCaRWt-102" value="tags" style="ellipse;whiteSpace=wrap;html=1;rounded=0;" vertex="1" parent="1">
          <mxGeometry x="700" y="478" width="80" height="40" as="geometry" />
        </mxCell>
        <mxCell id="2x9wppMG4TO0C0dCaRWt-103" style="edgeStyle=orthogonalEdgeStyle;rounded=0;orthogonalLoop=1;jettySize=auto;html=1;exitX=1;exitY=1;exitDx=0;exitDy=0;entryX=0.25;entryY=0;entryDx=0;entryDy=0;" edge="1" parent="1" source="2x9wppMG4TO0C0dCaRWt-104" target="2x9wppMG4TO0C0dCaRWt-33">
          <mxGeometry relative="1" as="geometry" />
        </mxCell>
        <mxCell id="2x9wppMG4TO0C0dCaRWt-104" value="Text" style="ellipse;whiteSpace=wrap;html=1;rounded=0;" vertex="1" parent="1">
          <mxGeometry x="529" y="468" width="80" height="40" as="geometry" />
        </mxCell>
        <mxCell id="2x9wppMG4TO0C0dCaRWt-105" value="Like_list" style="ellipse;whiteSpace=wrap;html=1;rounded=0;" vertex="1" parent="1">
          <mxGeometry x="950" y="628" width="80" height="50" as="geometry" />
        </mxCell>
        <mxCell id="2x9wppMG4TO0C0dCaRWt-106" value="post_id" style="ellipse;whiteSpace=wrap;html=1;rounded=0;" vertex="1" parent="1">
          <mxGeometry x="1090" y="545" width="80" height="45" as="geometry" />
        </mxCell>
        <mxCell id="2x9wppMG4TO0C0dCaRWt-107" value="&lt;u&gt;User Id&lt;/u&gt;" style="ellipse;whiteSpace=wrap;html=1;rounded=0;" vertex="1" parent="1">
          <mxGeometry x="1050" y="448" width="80" height="50" as="geometry" />
        </mxCell>
        <mxCell id="2x9wppMG4TO0C0dCaRWt-108" style="edgeStyle=orthogonalEdgeStyle;rounded=0;orthogonalLoop=1;jettySize=auto;html=1;exitX=0;exitY=1;exitDx=0;exitDy=0;entryX=0.874;entryY=-0.042;entryDx=0;entryDy=0;entryPerimeter=0;" edge="1" parent="1" source="2x9wppMG4TO0C0dCaRWt-107" target="2x9wppMG4TO0C0dCaRWt-49">
          <mxGeometry relative="1" as="geometry" />
        </mxCell>
        <mxCell id="2x9wppMG4TO0C0dCaRWt-109" value="Created at" style="ellipse;whiteSpace=wrap;html=1;rounded=0;" vertex="1" parent="1">
          <mxGeometry x="640" y="863" width="80" height="50" as="geometry" />
        </mxCell>
        <mxCell id="2x9wppMG4TO0C0dCaRWt-110" value="&lt;u&gt;Post id&lt;/u&gt;" style="ellipse;whiteSpace=wrap;html=1;rounded=0;" vertex="1" parent="1">
          <mxGeometry x="500" y="958" width="80" height="40" as="geometry" />
        </mxCell>
        <mxCell id="2x9wppMG4TO0C0dCaRWt-111" value="User Id" style="ellipse;whiteSpace=wrap;html=1;rounded=0;" vertex="1" parent="1">
          <mxGeometry x="360" y="868" width="80" height="40" as="geometry" />
        </mxCell>
        <mxCell id="2x9wppMG4TO0C0dCaRWt-112" value="&lt;u&gt;Hastag Name&lt;/u&gt;" style="ellipse;whiteSpace=wrap;html=1;rounded=0;" vertex="1" parent="1">
          <mxGeometry x="600" y="1073" width="80" height="50" as="geometry" />
        </mxCell>
        <mxCell id="2x9wppMG4TO0C0dCaRWt-113" value="Hastag_count" style="ellipse;whiteSpace=wrap;html=1;rounded=0;" vertex="1" parent="1">
          <mxGeometry x="770" y="1188" width="80" height="40" as="geometry" />
        </mxCell>
        <mxCell id="2x9wppMG4TO0C0dCaRWt-114" value="Created Date" style="ellipse;whiteSpace=wrap;html=1;rounded=0;" vertex="1" parent="1">
          <mxGeometry x="900" y="1073" width="80" height="50" as="geometry" />
        </mxCell>
        <mxCell id="2x9wppMG4TO0C0dCaRWt-115" value="Post_id" style="ellipse;whiteSpace=wrap;html=1;rounded=0;" vertex="1" parent="1">
          <mxGeometry x="940" y="748" width="80" height="40" as="geometry" />
        </mxCell>
        <mxCell id="2x9wppMG4TO0C0dCaRWt-116" value="&lt;u&gt;Hastag_id&lt;/u&gt;" style="ellipse;whiteSpace=wrap;html=1;rounded=0;" vertex="1" parent="1">
          <mxGeometry x="940" y="803" width="80" height="45" as="geometry" />
        </mxCell>
      </root>
    </mxGraphModel>
  </diagram>
</mxfile>
